<svg width="864" height="183" viewBox="0 0 864 183" fill="none" xmlns="http://www.w3.org/2000/svg">
<path d="M864 0H0V183H864V0Z" fill="#1F1D27"/>
<path d="M127.913 97.6084C123.705 98.8279 118.602 99.5394 112.625 99.8849C112.971 100.942 113.154 102.344 113.154 103.747C113.154 119.907 114.902 132.733 118.785 142.205C120.371 146.595 121.245 149.055 121.245 149.4C121.245 152.917 119.659 155.031 116.671 155.722C114.211 155.193 112.096 153.791 110.694 151.514C109.291 149.583 108.051 145.721 106.648 139.745C97.8659 150.457 88.0265 155.905 77.1299 155.905C65.5421 155.905 56.0483 151.697 48.5061 143.445C40.5979 134.664 36.7354 123.24 36.7354 109.194C36.7354 87.0589 44.2979 66.1632 59.7482 46.6701C75.7272 26.12 94.1863 15.7534 114.902 15.7534C119.476 15.7534 121.753 17.6844 121.753 21.2009C121.753 25.063 119.476 26.994 115.085 26.994C101.037 26.994 88.0265 32.97 76.0931 44.9017C67.4938 53.4998 60.6427 62.9923 55.723 73.1759C50.0918 84.762 47.2863 96.1855 47.2863 107.426C47.2863 117.955 49.5632 126.574 54.3203 133.241C59.5856 140.965 67.3108 144.827 77.3332 144.827C85.0584 144.827 91.5638 141.839 96.8291 135.517C100.529 131.127 102.46 124.277 102.46 114.967C102.46 114.256 102.277 112.508 102.277 109.865C101.932 107.223 101.932 105.475 101.932 104.601C101.932 103.015 102.643 101.45 104.392 100.027C99.8175 100.027 95.9549 99.4987 92.8039 98.4417C89.8154 97.5677 88.4127 95.7993 88.4127 93.1772C88.4127 89.4981 89.9984 87.567 93.3324 87.567C94.2066 87.567 95.4467 87.75 97.0121 88.0955C99.4719 88.807 102.806 89.1525 106.851 89.1525C111.954 89.1525 119.842 88.2785 130.576 86.1645C133.747 86.1645 135.496 87.9126 135.496 91.4291C135.496 94.4171 132.853 96.5311 127.933 97.5677L127.913 97.6084Z" fill="#890F0D"/>
<path d="M207.482 111.309C204.839 118.687 203.619 126.594 203.619 134.664C203.619 137.652 203.802 140.64 204.493 143.445C205.551 148.709 206.242 151.352 206.242 151.697C206.242 155.031 204.31 156.799 200.631 156.799C196.951 156.799 195.183 153.811 194.654 148.201C194.308 145.213 193.78 140.477 193.068 133.973C183.412 145.559 174.101 151.352 165.136 151.352C160.399 151.352 156.353 149.238 153.019 144.685C149.685 140.823 148.1 136.249 148.1 131.168C148.1 123.078 151.617 114.662 158.996 105.516C160.399 103.767 163.042 100.942 166.721 97.4459C178.309 86.9167 187.986 81.6318 196.057 81.6318C197.805 81.6318 199.736 82.5059 201.668 83.9084C203.416 85.4939 204.473 87.242 204.473 89.173C204.473 89.5185 204.29 90.3926 203.945 91.6325C205.347 95.149 206.059 99.1736 206.059 103.584C207.461 105.333 208.173 106.918 208.173 108.158C208.173 108.869 207.827 109.906 207.461 111.329L207.482 111.309ZM191.503 93.9294C189.226 93.9294 185.526 95.8604 180.606 99.5395C176.032 102.873 172.353 106.207 169.547 109.56C162.168 117.813 158.651 124.846 158.651 130.639C158.651 136.778 160.927 139.766 165.847 139.766C172.515 139.766 179.021 135.721 185.689 127.306C192.357 118.87 195.874 110.963 195.874 103.239C195.874 97.1003 194.288 93.9294 191.483 93.9294H191.503Z" fill="#890F0D"/>
<path d="M335.72 150.132C329.581 150.132 325.007 136.432 322.201 108.849C313.073 118.159 304.636 128.688 297.257 140.64C294.085 145.742 291.117 148.201 288.475 148.201C285.669 148.201 283.209 145.559 280.912 140.111C277.049 131.513 275.118 119.378 274.935 103.747C268.084 108.321 261.416 114.459 255.094 121.838C247.003 130.964 242.266 139.054 240.517 146.433C239.115 152.571 237 155.742 234.541 155.742C229.967 155.742 227.873 151.535 227.873 143.445C227.873 137.814 229.092 129.033 231.552 117.264C234.358 103.219 235.943 93.7261 235.943 89.1526C235.943 85.9817 234.886 82.3026 232.955 77.7291C233.301 75.6152 234.541 73.8671 236.635 72.2816C238.22 71.062 239.786 70.3506 241.554 70.3506C245.6 70.3506 247.694 75.4525 247.694 85.6361C247.694 90.2096 246.82 96.3482 245.234 103.727C243.831 109.865 242.591 115.841 241.371 121.817C263.51 98.6248 277.029 86.8557 282.294 86.8557C284.937 86.8557 286.34 90.9007 286.34 98.6248C286.34 114.073 287.743 125.314 290.548 132.347C308.641 107.06 321.469 94.2343 329.011 94.2343C332 94.2343 333.586 98.4419 333.586 106.532C333.586 111.796 334.114 117.427 335.334 123.565C336.737 131.127 338.505 136.391 340.945 139.379C342.348 141.493 343.222 142.713 343.222 143.424C343.222 147.998 340.579 150.092 335.659 150.092L335.72 150.132Z" fill="#890F0D"/>
<path d="M408.093 154.868C394.391 154.868 384.551 148.364 378.575 135.375C377.172 135.721 375.424 135.904 373.655 135.904C367.515 135.904 362.596 134.847 359.079 132.57C354.688 130.11 352.573 127.468 352.573 124.663C352.573 120.801 354.322 118.87 357.839 118.87C358.367 118.87 360.115 119.927 363.104 122.021C366.092 123.952 369.081 124.826 372.069 124.826C373.126 124.826 374.346 124.826 375.403 124.643C374.875 121.838 374.692 119.195 374.692 116.553C374.692 108.117 376.806 99.8646 381.014 91.9576C385.751 82.9936 391.728 78.4404 398.924 78.4404C403.315 78.4404 407.707 80.8999 412.281 85.4734C415.452 88.9899 417.2 93.0349 417.2 97.588C417.2 104.621 414.212 111.288 408.418 117.955C403.153 124.094 396.647 128.85 388.922 132.184C392.439 139.562 397.888 143.241 405.613 143.241C407.198 143.241 409.658 143.058 412.992 142.367C416.164 142.022 418.095 141.839 418.969 141.839C420.372 141.839 421.429 142.55 422.486 143.77C423.543 145.172 424.072 146.412 424.072 147.815C424.072 152.388 418.624 154.848 408.093 154.848V154.868ZM404.047 92.6893C402.116 91.1039 400.185 90.2298 398.253 90.2298C394.736 90.2298 391.748 93.0349 389.288 98.2995C386.828 103.564 385.609 109.194 385.609 114.805C385.609 116.919 385.792 119.378 386.137 121.838C391.768 119.378 396.668 116.045 400.713 111.654C404.759 107.609 406.853 103.218 406.853 98.4824C406.853 96.3684 405.796 94.4374 404.047 92.6893Z" fill="#890F0D"/>
<path d="M588.659 131.147C578.291 142.042 565.646 147.307 550.704 147.307C536.819 147.307 524.357 142.916 513.46 134.135C501.506 124.643 495.55 112.874 495.55 98.828C495.55 81.2659 503.804 65.6348 520.311 51.5892C527.874 45.2676 534.359 41.06 539.624 39.2916C540.864 34.3726 545.255 31.9131 552.614 31.9131C568.593 31.9131 581.421 37.7061 590.915 49.1297C599.697 60.0247 604.271 74.0703 604.271 91.1039C604.271 106.918 599.006 120.252 588.638 131.147H588.659ZM584.959 59.3132C578.982 51.5892 571.602 46.6701 562.474 44.2106C562.129 44.3936 560.726 44.5562 558.612 44.9221C550.012 46.5075 541.738 50.024 533.667 55.2886C525.597 60.7361 519.091 67.2406 514.172 74.6191C508.906 82.6888 506.446 89.9047 506.446 96.2262C506.446 108.524 511.183 118.362 520.677 125.74C529.114 132.773 539.482 136.107 551.598 136.107C563.714 136.107 573.554 132.062 581.645 123.809C589.37 115.74 593.416 105.19 593.416 92.5471C593.416 78.3186 590.61 67.2609 584.979 59.3539L584.959 59.3132Z" fill="#890F0D"/>
<path d="M686.687 91.4496C685.975 92.5066 683.536 95.1287 679.653 99.5192C663.837 116.898 652.432 132.895 645.052 147.287C642.409 152.389 640.132 155.011 638.018 155.011C634.684 155.011 632.224 152.023 630.639 146.413C627.467 136.392 624.845 123.057 622.568 106.532C621.165 96.0028 620.454 89.8438 620.454 88.4413C620.454 87.0387 620.982 85.6362 622.039 84.5792C623.096 83.5223 624.316 82.9938 625.556 82.9938C627.671 82.9938 629.236 84.5792 630.659 87.3843C631.188 91.4293 631.879 96.1654 632.59 101.613C633.993 112.142 635.924 123.748 638.221 136.392C646.821 122.346 660.523 104.601 679.511 82.8108C679.693 78.0747 681.442 75.6152 684.776 75.6152C688.638 75.6152 690.753 77.7292 690.753 81.5912C690.753 84.7622 689.35 87.9128 686.707 91.4293L686.687 91.4496Z" fill="#890F0D"/>
<path d="M751.843 154.868C738.141 154.868 728.301 148.364 722.325 135.375C720.922 135.721 719.174 135.904 717.405 135.904C711.265 135.904 706.346 134.847 702.829 132.57C698.438 130.11 696.323 127.468 696.323 124.663C696.323 120.801 698.072 118.87 701.589 118.87C702.117 118.87 703.866 119.927 706.854 122.021C709.842 123.952 712.831 124.826 715.819 124.826C716.876 124.826 718.096 124.826 719.153 124.643C718.625 121.838 718.442 119.195 718.442 116.553C718.442 108.117 720.556 99.8646 724.764 91.9576C729.501 82.9936 735.478 78.4404 742.674 78.4404C747.065 78.4404 751.457 80.8999 756.031 85.4734C759.202 88.9899 760.95 93.0349 760.95 97.588C760.95 104.621 757.962 111.288 752.168 117.955C746.903 124.094 740.397 128.85 732.672 132.184C736.189 139.562 741.637 143.241 749.363 143.241C750.948 143.241 753.408 143.058 756.742 142.367C759.914 142.022 761.845 141.839 762.719 141.839C764.122 141.839 765.179 142.55 766.236 143.77C767.293 145.172 767.822 146.412 767.822 147.815C767.822 152.388 762.374 154.848 751.843 154.848V154.868ZM747.797 92.6893C745.866 91.1039 743.935 90.2298 742.003 90.2298C738.486 90.2298 735.498 93.0349 733.038 98.2995C730.578 103.564 729.359 109.194 729.359 114.805C729.359 116.919 729.542 119.378 729.887 121.838C735.518 119.378 740.418 116.045 744.463 111.654C748.509 107.609 750.603 103.218 750.603 98.4824C750.603 96.3684 749.546 94.4374 747.797 92.6893Z" fill="#890F0D"/>
<path d="M837.043 92.6893C833.872 94.0919 831.595 94.8033 829.846 94.8033C829.501 94.8033 828.444 94.4577 826.329 93.7463C811.225 100.779 802.097 115.353 799.271 137.835C797.685 149.604 795.754 155.58 793.477 155.58C791.546 155.58 789.96 154.36 788.557 152.246C787.155 150.132 786.443 148.201 786.443 145.742C786.789 143.993 787.5 141.005 788.374 136.615C789.249 131.35 789.777 126.431 789.777 121.858C789.777 116.756 789.066 111.674 788.029 106.572C785.915 104.458 784.857 101.999 784.512 99.5394C783.638 94.8033 783.292 90.9412 783.292 88.1159C783.292 87.0589 783.638 85.8393 784.512 84.4368C785.223 83.0342 785.914 82.3228 786.789 82.3228C790.651 82.3228 793.294 85.6563 794.697 91.9779C796.1 98.645 797.157 103.564 797.868 107.081C802.076 99.1735 807.525 92.5064 814.559 87.0589C821.227 81.7943 828.078 79.1519 835.112 79.1519C836.86 79.1519 838.629 80.0259 840.377 81.7943C841.78 83.5424 842.491 85.4734 842.654 87.4044C842.654 89.3355 840.723 91.0835 837.023 92.669L837.043 92.6893Z" fill="#890F0D"/>
</svg>
