<svg width="616" height="388" viewBox="0 0 616 388" fill="none" xmlns="http://www.w3.org/2000/svg">
<path d="M608 7.74292V296.165L26.2646 379.919" stroke="#13BF6A" stroke-width="15" stroke-miterlimit="10"/>
<path d="M0 81.4409V360.979L588.305 278.966" fill="#13BF6A"/>
<path d="M588.305 279.538V0L0 82.0124" fill="#13BF6A"/>
<path d="M193.637 176.498C186.825 177.441 181.246 176.669 176.912 174.182C173.26 172.116 171.203 169.439 170.752 166.14C170.521 164.446 170.832 162.982 171.695 161.728C172.558 160.475 173.892 159.723 175.688 159.472C178.106 159.141 180.042 160.124 181.517 162.44C183.504 165.529 187.196 166.702 192.584 165.95C197.199 165.308 201.523 163.684 205.566 161.077C209.76 158.389 211.686 155.812 211.345 153.346C210.874 149.966 209.168 147.931 206.239 147.249C204.142 146.748 200.098 146.848 194.099 147.54C189.443 148.081 185.159 147.781 181.256 146.657C175.979 145.123 173.1 142.266 172.608 138.094C171.966 132.85 174.093 127.676 178.989 122.552C183.885 117.428 189.644 114.41 196.276 113.498C198.904 113.137 202.235 113.287 206.269 113.959C211.275 114.801 213.924 116.195 214.195 118.15C214.385 119.544 214.074 120.847 213.262 122.051C212.359 123.404 211.054 124.197 209.369 124.437C208.105 124.608 206.188 124.608 203.6 124.417C201.011 124.227 199.085 124.227 197.791 124.397C194.329 124.898 191.159 126.192 188.279 128.258C185.29 130.363 183.935 132.399 184.206 134.354C184.347 135.377 184.949 136.149 186.022 136.67C187.096 137.192 188.631 137.453 190.617 137.442C194.079 137.152 197.52 136.871 200.961 136.59C206.981 136.219 211.927 137.242 215.79 139.658C220.044 142.346 222.572 146.537 223.355 152.223C224.318 159.141 221.097 164.927 213.703 169.59C208.065 173.129 201.383 175.435 193.657 176.508L193.637 176.498Z" fill="black"/>
<path d="M272.948 113.859C270.851 114.149 267.57 114.45 263.105 114.771C258.801 115.072 255.52 115.383 253.273 115.724C253.805 118.762 254.918 124.157 256.624 131.908C258.149 138.746 259.192 144.181 259.744 148.202C259.875 149.114 260.155 150.458 260.587 152.223C261.028 153.997 261.309 155.331 261.43 156.244C261.711 158.249 261.53 160.124 260.898 161.849C260.085 164.065 258.661 165.318 256.614 165.599C255.139 165.799 253.774 165.519 252.51 164.737C251.106 163.864 250.293 162.641 250.072 161.057C250.022 160.686 250.012 160.104 250.032 159.322C250.062 158.54 250.042 157.948 249.992 157.547C249.821 156.314 249.48 154.459 248.959 151.992C248.437 149.525 248.096 147.66 247.915 146.397C247.414 142.807 246.46 137.974 245.046 131.908C243.42 124.949 242.377 120.126 241.895 117.458L239.799 117.749C233.819 118.581 229.003 118.802 225.371 118.431C222.291 118.12 220.555 116.566 220.174 113.778C219.983 112.415 220.294 111.111 221.107 109.878C222.05 108.404 223.445 107.612 225.291 107.491C226.234 107.411 228.401 107.351 231.782 107.291C234.481 107.221 236.648 107.07 238.284 106.84C239.919 106.609 242.367 106.248 245.618 105.747C248.868 105.245 251.316 104.874 252.952 104.654C254.988 104.373 258.069 104.092 262.182 103.801C266.296 103.511 269.376 103.24 271.423 102.949C273.028 102.728 274.453 103.059 275.687 103.962C276.921 104.854 277.643 106.068 277.854 107.602C278.064 109.126 277.703 110.5 276.76 111.713C275.817 112.926 274.543 113.638 272.938 113.859H272.948Z" fill="black"/>
<path d="M335.303 155.612C333.176 155.822 330.688 153.626 327.869 149.014C326.002 146.046 324.277 142.566 322.692 138.575C320.745 139.147 317.545 139.889 313.07 140.812C308.866 141.694 305.676 142.496 303.478 143.208C302.656 146.327 301.121 151.069 298.883 157.417C297.97 159.512 296.465 160.705 294.378 160.996C292.904 161.197 291.509 160.886 290.185 160.044C288.86 159.201 288.098 157.998 287.877 156.444C287.686 155.08 289.001 150.167 291.82 141.714C291.328 140.932 291.057 140.18 291.017 139.448C290.947 138.144 292.111 136.961 294.499 135.888C297.398 128.769 300.689 121.339 304.371 113.608C309.669 102.518 313.1 96.8624 314.655 96.6418C317.605 96.2307 319.822 97.7448 321.317 101.174C322.25 103.972 323.695 108.153 325.641 113.738C328.35 121.238 331.571 129.792 335.313 139.418C335.604 140.14 336.537 141.814 338.102 144.441C339.386 146.617 340.109 148.272 340.269 149.435C340.48 150.989 340.079 152.373 339.055 153.576C338.032 154.779 336.778 155.461 335.293 155.612H335.303ZM314.565 116.415C312.97 120.296 310.762 125.59 307.943 132.298C309.117 131.867 310.963 131.386 313.491 130.875C316.471 130.273 318.337 129.862 319.11 129.641C317.986 126.242 316.471 121.84 314.565 116.415Z" fill="black"/>
<path d="M395.571 121.92C394.859 130.163 392.07 137.071 387.204 142.637C382.267 148.242 376.027 151.561 368.482 152.604C361.349 153.596 355.73 152.453 351.637 149.174C347.543 145.905 344.975 140.501 343.931 132.96C342.978 126.092 343.691 118.822 346.078 111.141C348.456 103.46 351.998 97.0129 356.683 91.7987C359.974 88.1488 363.757 86.0231 368.021 85.4315C370.619 85.0705 374.291 85.5217 379.037 86.7751C384.655 88.2692 387.645 90.2746 387.996 92.7914C388.197 94.2353 387.826 95.6091 386.883 96.9026C385.94 98.1961 384.665 98.9481 383.05 99.1788C382.247 99.2891 380.361 98.7777 377.401 97.6446C374.442 96.5115 371.823 96.1004 369.536 96.4112C367.118 96.7421 364.218 99.8004 360.837 105.566C355.901 113.959 354.045 122.562 355.269 131.386C355.891 135.868 356.964 138.816 358.509 140.24C360.135 141.734 362.954 142.205 366.947 141.654C371.051 141.082 374.502 139.418 377.291 136.65C380.251 133.722 382.197 129.792 383.12 124.858C376.96 126.202 371.713 128.228 367.388 130.935C366.606 131.426 365.803 131.727 364.971 131.847C363.305 132.078 361.84 131.657 360.566 130.574C359.422 129.611 358.75 128.438 358.559 127.044C357.988 122.943 362.452 119.404 371.933 116.415C377.281 114.751 383.602 113.407 390.906 112.395C392.511 112.174 393.936 112.505 395.17 113.407C396.404 114.3 397.126 115.513 397.337 117.047C397.608 119.003 397.016 120.627 395.551 121.93L395.571 121.92Z" fill="black"/>
<path d="M438.633 87.507C438.091 87.5772 437.519 87.5772 436.907 87.507C432.392 86.9254 428.088 86.9254 423.985 87.497C421.968 87.7777 419.831 88.239 417.574 88.8807C415.306 89.5225 412.918 90.3447 410.41 91.3474C410.902 94.9171 411.514 100.231 412.256 107.291C413.741 106.98 418.918 105.756 427.787 103.621C432.844 102.397 436.054 101.695 437.419 101.505C439.004 101.284 440.429 101.595 441.693 102.448C442.957 103.3 443.71 104.553 443.94 106.218C444.382 109.406 442.927 111.452 439.586 112.354C437.459 112.816 434.289 113.528 430.075 114.49C426.322 115.443 420.654 116.766 413.069 118.441C413.35 121.87 413.641 124.638 413.932 126.723C414.664 131.978 415.386 134.926 416.099 135.567C416.44 135.878 418.156 135.818 421.246 135.387C422.911 135.156 425.409 134.765 428.75 134.224C432.091 133.682 434.6 133.291 436.265 133.061C436.797 132.99 437.579 132.8 438.603 132.489C439.626 132.178 440.399 131.998 440.9 131.927C442.455 131.707 443.85 131.968 445.074 132.7C446.469 133.522 447.291 134.825 447.542 136.62C447.964 139.628 446.639 141.634 443.579 142.667C440.971 143.549 435.432 144.572 426.985 145.745C418.236 146.958 412.366 146.567 409.387 144.572C406.096 142.376 403.858 136.951 402.655 128.288C402.153 124.698 401.671 119.263 401.19 111.983C400.718 104.714 400.227 99.2889 399.735 95.7193C399.605 94.7867 399.273 93.413 398.752 91.6081C398.23 89.8132 397.899 88.4395 397.768 87.497C397.207 83.4159 398.802 81.1197 402.554 80.5983C403.738 80.4378 404.872 80.6183 405.955 81.1498C408.965 79.9365 411.835 78.9438 414.584 78.1717C417.333 77.3896 419.951 76.828 422.45 76.4871C429.212 75.5546 434.73 75.5847 438.994 76.5774C441.593 77.169 443.067 78.7031 443.409 81.1698C443.599 82.5636 443.288 83.8671 442.476 85.0704C441.573 86.4541 440.288 87.2563 438.623 87.4869L438.633 87.507Z" fill="black"/>
<path d="M186.082 227.005C183.664 227.336 181.708 226.313 180.203 223.927C179.501 222.794 178.858 222.142 178.287 221.982C177.855 221.851 176.782 221.901 175.066 222.142C171.685 222.613 168.143 225.782 164.451 231.648C159.274 239.85 157.127 247.16 158.01 253.567C158.411 256.495 159.746 258.862 161.993 260.686C164.24 262.501 166.739 263.223 169.468 262.842C172.126 262.471 174.725 261.408 177.263 259.634C178.156 258.992 180.012 257.398 182.831 254.841C184.728 253.156 186.223 252.244 187.286 252.093C188.891 251.873 190.346 252.274 191.64 253.296C192.834 254.249 193.537 255.442 193.737 256.856C193.958 258.44 193.446 259.914 192.222 261.288C185.701 268.528 178.628 272.679 170.972 273.742C164.933 274.574 159.535 273.09 154.759 269.26C150.204 265.57 147.525 260.857 146.723 255.121C145.479 246.137 148.137 236.421 154.699 225.972C160.277 217.108 166.558 212.195 173.531 211.232C174.715 211.072 175.788 210.962 176.751 210.912C177.715 210.861 178.567 210.861 179.32 210.922C180.343 209.608 181.678 208.836 183.343 208.605C186.082 208.224 187.988 209.558 189.072 212.606C189.845 214.792 190.437 217.389 190.848 220.397C191.038 221.741 190.818 223.014 190.186 224.218C189.363 225.812 187.988 226.734 186.062 227.005H186.082Z" fill="black"/>
<path d="M240.31 261.599C237.341 263.434 232.615 265.359 226.134 267.375C220.214 269.23 215.308 270.433 211.415 270.974C204.844 271.887 201.152 269.46 200.359 263.695C200.419 264.156 200.098 259.864 199.396 250.83C198.483 239.098 197.028 226.093 195.052 211.824C194.841 210.3 195.192 208.916 196.095 207.703C197.008 206.48 198.272 205.758 199.877 205.537C201.483 205.316 202.907 205.667 204.121 206.59C205.345 207.512 206.058 208.746 206.268 210.27C208.255 224.559 209.71 237.784 210.663 249.917C210.723 252.093 210.924 255.412 211.265 259.874C217.606 258.892 225.552 256.204 235.093 251.823C235.685 251.552 236.257 251.371 236.829 251.301C238.514 251.07 239.969 251.492 241.193 252.585C242.287 253.557 242.929 254.72 243.12 256.094C243.441 258.4 242.508 260.235 240.31 261.609V261.599Z" fill="black"/>
<path d="M281.466 204.895C280.924 204.966 280.352 204.966 279.74 204.895C275.225 204.314 270.921 204.314 266.818 204.885C264.801 205.166 262.664 205.627 260.407 206.269C258.139 206.911 255.751 207.733 253.243 208.736C253.735 212.306 254.347 217.62 255.079 224.679C256.564 224.368 261.741 223.145 270.61 221.009C275.667 219.786 278.877 219.084 280.242 218.893C281.827 218.673 283.252 218.994 284.516 219.836C285.78 220.688 286.533 221.942 286.763 223.606C287.205 226.795 285.75 228.84 282.409 229.743C280.282 230.204 277.112 230.916 272.898 231.879C269.145 232.831 263.477 234.155 255.892 235.829C256.173 239.259 256.464 242.026 256.755 244.112C257.487 249.366 258.209 252.314 258.922 252.956C259.263 253.267 260.979 253.206 264.069 252.775C265.734 252.545 268.232 252.154 271.573 251.612C274.914 251.071 277.423 250.68 279.088 250.449C279.62 250.379 280.402 250.188 281.426 249.877C282.449 249.567 283.222 249.386 283.723 249.316C285.278 249.105 286.673 249.356 287.887 250.088C289.282 250.91 290.114 252.214 290.355 254.009C290.777 257.017 289.452 259.022 286.392 260.055C283.784 260.937 278.245 261.96 269.798 263.133C261.049 264.347 255.189 263.956 252.2 261.96C248.919 259.764 246.671 254.339 245.468 245.676C244.966 242.086 244.484 236.652 244.003 229.372C243.531 222.102 243.04 216.677 242.548 213.108C242.417 212.175 242.086 210.801 241.565 208.997C241.043 207.202 240.712 205.828 240.581 204.885C240.02 200.804 241.615 198.508 245.367 197.987C246.551 197.826 247.685 198.007 248.768 198.538C251.768 197.325 254.648 196.332 257.397 195.56C260.146 194.778 262.764 194.216 265.263 193.876C272.025 192.943 277.543 192.973 281.807 193.966C284.406 194.557 285.88 196.092 286.222 198.558C286.412 199.952 286.101 201.256 285.289 202.459C284.386 203.843 283.101 204.645 281.436 204.875L281.466 204.895Z" fill="black"/>
<path d="M345.938 249.757C343.811 249.968 341.323 247.772 338.503 243.159C336.647 240.191 334.912 236.712 333.326 232.721C331.38 233.292 328.179 234.034 323.705 234.957C319.501 235.839 316.31 236.641 314.113 237.353C313.29 240.472 311.755 245.205 309.518 251.562C308.605 253.658 307.1 254.851 305.013 255.142C303.538 255.342 302.144 255.031 300.819 254.189C299.495 253.347 298.732 252.143 298.512 250.589C298.321 249.226 299.635 244.312 302.455 235.859C301.963 235.077 301.692 234.325 301.652 233.593C301.582 232.29 302.746 231.106 305.134 230.033C308.033 222.914 311.324 215.484 315.006 207.753C320.303 196.663 323.735 191.008 325.29 190.787C328.24 190.376 330.457 191.89 331.952 195.319C332.885 198.117 334.33 202.298 336.276 207.883C338.985 215.384 342.205 223.937 345.948 233.563C346.239 234.285 347.172 235.96 348.737 238.587C350.021 240.763 350.744 242.427 350.904 243.58C351.115 245.134 350.713 246.518 349.69 247.721C348.667 248.925 347.413 249.607 345.928 249.757H345.938ZM325.2 210.561C323.604 214.441 321.397 219.736 318.578 226.444C319.752 226.013 321.598 225.531 324.126 225.02C327.106 224.418 328.972 224.007 329.745 223.787C328.621 220.387 327.106 215.985 325.2 210.561Z" fill="black"/>
<path d="M401.14 241.374C399.695 241.575 398.28 241.194 396.916 240.241C387.725 233.754 378.064 229.703 367.91 228.108C369.285 235.869 370.037 240.181 370.158 241.043C370.368 242.567 370.007 243.941 369.084 245.144C368.161 246.348 366.887 247.07 365.282 247.29C363.666 247.511 362.252 247.17 361.038 246.257C359.814 245.345 359.101 244.132 358.891 242.598C358.61 240.582 358.218 237.574 357.717 233.553C357.215 229.532 356.824 226.524 356.543 224.508L352.118 192.03C351.877 190.286 352.178 188.631 353.031 187.067C354.145 185.051 355.921 183.979 358.369 183.828C364.96 183.407 368.332 183.196 368.492 183.206C372.315 183.146 375.626 183.598 378.445 184.57C390.705 188.752 397.427 195.099 398.601 203.632C399.093 207.141 398.32 210.41 396.294 213.448C394.267 216.477 390.976 219.244 386.431 221.761C394.096 224.749 400.006 228.058 404.18 231.688C405.263 232.63 405.905 233.764 406.086 235.077C406.296 236.581 405.915 237.955 404.932 239.188C403.959 240.432 402.685 241.164 401.129 241.374H401.14ZM368.322 194.347C368.101 194.347 366.516 194.457 363.566 194.678L366.526 216.035C367.198 215.975 367.79 215.905 368.301 215.835C374.873 214.922 379.629 213.428 382.568 211.353C383.843 210.47 384.966 209.367 385.95 208.054C386.933 206.74 387.374 205.788 387.294 205.206C386.873 202.198 384.575 199.571 380.371 197.305C376.388 195.179 372.365 194.186 368.312 194.347H368.322Z" fill="black"/>
<path d="M416.601 226.564C415.096 226.775 413.791 226.474 412.678 225.672C411.564 224.87 410.912 223.756 410.721 222.333C410.581 221.29 410.33 219.726 409.969 217.66C409.618 215.594 409.367 214.03 409.216 212.987C408.705 209.287 407.962 203.732 407.009 196.322C406.046 188.912 405.314 183.357 404.802 179.657C404.601 178.233 404.932 176.98 405.795 175.887C406.658 174.794 407.822 174.152 409.297 173.941C410.772 173.741 412.076 174.042 413.2 174.854C414.323 175.666 414.985 176.789 415.186 178.213L421.106 220.889C421.306 222.313 420.975 223.556 420.132 224.629C419.28 225.702 418.106 226.344 416.601 226.554V226.564ZM418.507 241.184C416.892 241.404 415.276 240.753 413.641 239.238C412.156 237.835 411.323 236.441 411.133 235.077C410.942 233.683 411.323 232.44 412.297 231.347C413.27 230.254 414.454 229.612 415.848 229.422C417.454 229.201 419.069 229.853 420.674 231.377C422.149 232.781 422.982 234.155 423.172 235.498C423.363 236.862 422.982 238.105 422.029 239.228C421.075 240.341 419.902 241.003 418.507 241.194V241.184Z" fill="black"/>
<path d="M436.205 223.857C434.7 224.067 433.395 223.767 432.282 222.964C431.168 222.162 430.516 221.049 430.325 219.625C430.185 218.583 429.934 217.018 429.573 214.953C429.222 212.887 428.971 211.323 428.82 210.28C428.309 206.58 427.566 201.025 426.613 193.615C425.65 186.205 424.918 180.65 424.406 176.95C424.205 175.526 424.536 174.272 425.399 173.179C426.262 172.086 427.426 171.445 428.901 171.234C430.376 171.034 431.68 171.334 432.804 172.147C433.927 172.959 434.589 174.082 434.79 175.506L440.71 218.181C440.91 219.605 440.579 220.849 439.736 221.922C438.884 222.994 437.71 223.636 436.205 223.847V223.857ZM438.111 238.476C436.506 238.697 434.88 238.045 433.245 236.531C431.76 235.127 430.927 233.734 430.737 232.37C430.546 230.976 430.927 229.733 431.901 228.64C432.874 227.547 434.048 226.905 435.452 226.715C437.058 226.494 438.673 227.146 440.278 228.67C441.753 230.074 442.586 231.447 442.776 232.791C442.967 234.155 442.586 235.398 441.633 236.521C440.679 237.634 439.506 238.296 438.111 238.486V238.476Z" fill="black"/>
</svg>
