<svg width="55" height="39" viewBox="0 0 55 39" fill="none" xmlns="http://www.w3.org/2000/svg">
<path d="M2 25.826V15.794C2 14.4088 3.12288 13.286 4.508 13.286H11.2726C11.7678 13.286 12.2519 13.1394 12.6638 12.8647L23.1808 5.85342C24.8476 4.74227 27.08 5.93706 27.08 7.9402V33.6798C27.08 35.6829 24.8476 36.8777 23.1808 35.7664L12.6638 28.755C12.2519 28.4804 11.7678 28.334 11.2726 28.334H4.508C3.12288 28.334 2 27.2111 2 25.826Z" stroke="white" stroke-width="3.762"/>
<path d="M38.3662 9.52405C38.3662 9.52405 42.1282 13.286 42.1282 19.556C42.1282 25.826 38.3662 29.588 38.3662 29.588" stroke="white" stroke-width="3.762" stroke-linecap="round" stroke-linejoin="round"/>
<path d="M45.8901 2C45.8901 2 52.1601 8.27 52.1601 19.556C52.1601 30.842 45.8901 37.112 45.8901 37.112" stroke="white" stroke-width="3.762" stroke-linecap="round" stroke-linejoin="round"/>
</svg>
